<svg width="228" height="228" xmlns="http://www.w3.org/2000/svg" xmlns:xlink="http://www.w3.org/1999/xlink" overflow="hidden"><defs><clipPath id="clip0"><rect x="364" y="345" width="228" height="228"/></clipPath></defs><g clip-path="url(#clip0)" transform="translate(-364 -345)"><rect x="364" y="346" width="226" height="227" fill="#FFFFFF"/><path d="M382 455.809 434.025 362.39C456.694 358.638 477.143 361.206 479.2 386.212L574 409.499 573.228 419.843 474.333 396.021 422.612 497C422.039 486.998 424.567 478.664 418.491 474.419 415.302 469.406 402.855 458.159 386.155 469.355L382 455.809Z" fill="#446204" fill-rule="evenodd"/><path d="M387.297 508.024C393.612 511.864 402.673 513.455 411.484 508.797L509.105 537.63 571.37 413 579 421.118 513.669 551 414.002 521.394C407.879 528.631 386.528 526.913 380.33 517.186 375.88 514.958 383.727 509.298 387.297 508.024Z" fill="#446204" fill-rule="evenodd"/><path d="M364 346 591 346 591 573 364 573 364 346ZM387.288 369.288C387.192 402.566 387.097 435.845 387.002 469.124 370.187 481.008 375.693 501.488 387.252 507.663 387.3 521.094 387.45 539.284 387.288 549.712L567.712 549.712 567.712 369.288 387.288 369.288Z" fill="#446204" fill-rule="evenodd"/><path d="M473.25 502 455 497.235 492 423 508 427.013 506 433.784 495.75 431.025 465.5 492.47 475.75 495.73 473.25 502Z" fill="#446204" fill-rule="evenodd"/><path d="M464 460.123 488.561 466 492 460.122 467.93 454 464 460.123Z" fill="#446204" fill-rule="evenodd"/><path d="M511.005 417.226 552.705 427.169 539.68 453.229 498.447 443.182 511.005 417.226ZM514.916 424.789 508.687 438.419 536.014 444.946 542.725 431.891 514.916 424.789Z" fill="#446204" fill-rule="evenodd"/><path d="M494.057 450.692 535.757 460.635 522.732 486.695 481.499 476.648 494.057 450.692ZM497.968 458.255 491.739 471.885 519.066 478.412 525.777 465.357 497.968 458.255Z" fill="#446204" fill-rule="evenodd"/><path d="M477.645 484.712 519.344 494.654 506.32 520.715 465.086 510.668 477.645 484.712ZM481.555 492.274 475.326 505.904 502.653 512.431 509.364 499.376 481.555 492.274Z" fill="#446204" fill-rule="evenodd"/><path d="M434.079 433.501 475.778 443.443 462.754 469.504 421.52 459.457 434.079 433.501ZM437.989 441.063 431.76 454.693 459.087 461.22 465.798 448.165 437.989 441.063Z" fill="#446204" fill-rule="evenodd"/><path d="M374 488.5C374 473.864 385.864 462 400.5 462 415.136 462 427 473.864 427 488.5 427 503.136 415.136 515 400.5 515 385.864 515 374 503.136 374 488.5ZM378.766 488.5C378.766 500.503 388.497 510.234 400.5 510.234 412.503 510.234 422.234 500.503 422.234 488.5 422.234 476.497 412.503 466.766 400.5 466.766 388.497 466.766 378.766 476.497 378.766 488.5Z" fill="#446204" fill-rule="evenodd"/><path d="M389 488.5C389 482.149 393.925 477 400 477 406.075 477 411 482.149 411 488.5 411 494.851 406.075 500 400 500 393.925 500 389 494.851 389 488.5ZM395.643 488.5C395.643 491.183 397.594 493.357 400 493.357 402.406 493.357 404.357 491.183 404.357 488.5 404.357 485.817 402.406 483.643 400 483.643 397.594 483.643 395.643 485.817 395.643 488.5Z" fill="#446204" fill-rule="evenodd"/></g></svg>