<?xml version="1.0" encoding="UTF-8" standalone="no"?>
<!-- Generator: Adobe Illustrator 15.1.0, SVG Export Plug-In . SVG Version: 6.00 Build 0)  -->

<svg
   version="1.1"
   id="Layer_2"
   x="0px"
   y="0px"
   width="308.156px"
   height="188.387px"
   viewBox="0 0 308.156 188.387"
   enable-background="new 0 0 308.156 188.387"
   xml:space="preserve"
   sodipodi:docname="pert.svg"
   inkscape:version="1.3.2 (091e20ef0f, 2023-11-25)"
   xmlns:inkscape="http://www.inkscape.org/namespaces/inkscape"
   xmlns:sodipodi="http://sodipodi.sourceforge.net/DTD/sodipodi-0.dtd"
   xmlns="http://www.w3.org/2000/svg"
   xmlns:svg="http://www.w3.org/2000/svg"><defs
   id="defs72" /><sodipodi:namedview
   id="namedview72"
   pagecolor="#505050"
   bordercolor="#ffffff"
   borderopacity="1"
   inkscape:showpageshadow="0"
   inkscape:pageopacity="0"
   inkscape:pagecheckerboard="1"
   inkscape:deskcolor="#505050"
   inkscape:zoom="2.0184581"
   inkscape:cx="154.07801"
   inkscape:cy="94.378972"
   inkscape:window-width="1364"
   inkscape:window-height="766"
   inkscape:window-x="0"
   inkscape:window-y="0"
   inkscape:window-maximized="1"
   inkscape:current-layer="g13" />
<g
   id="g72">
	<g
   id="g4">
		<radialGradient
   id="SVGID_1_"
   cx="221.1963"
   cy="14.8188"
   r="14.3191"
   gradientUnits="userSpaceOnUse">
			<stop
   offset="0"
   style="stop-color:#FFFFFF"
   id="stop1" />
			<stop
   offset="1"
   style="stop-color:#6F9FCF"
   id="stop2" />
		</radialGradient>
		<circle
   fill="url(#SVGID_1_)"
   stroke="#000000"
   stroke-miterlimit="10"
   cx="221.196"
   cy="14.819"
   r="14.319"
   id="circle2" />
		<g
   id="g3">
			<path
   d="m 221.833,20.993 v -2.944 h -5.472 v -1.881 l 4.654,-7.5229998 h 3.553 V 15.883 h 1.463 v 2.166 h -1.463 v 2.944 z m 0,-5.11 v -2.735 c 0,-0.741 0.038,-1.501 0.076,-2.299 h -0.058 c -0.398,0.798 -0.74,1.52 -1.158,2.299 l -1.634,2.697 -0.02,0.038 z"
   id="path2" />
			
		</g>
	</g>
	<g
   id="g7">
		<radialGradient
   id="SVGID_2_"
   cx="149.2178"
   cy="173.5674"
   r="14.3193"
   gradientUnits="userSpaceOnUse">
			<stop
   offset="0"
   style="stop-color:#FFFFFF"
   id="stop4" />
			<stop
   offset="1"
   style="stop-color:#6F9FCF"
   id="stop5" />
		</radialGradient>
		<circle
   fill="url(#SVGID_2_)"
   stroke="#000000"
   stroke-miterlimit="10"
   cx="149.218"
   cy="173.567"
   r="14.319"
   id="circle5" />
		<g
   id="g6">
			<path
   d="m 143.396,178.75014 v -1.748 l 1.577,-1.424 c 2.717,-2.432 4.027,-3.819 4.047,-5.263 0,-1.007 -0.589,-1.805 -2.014,-1.805 -1.064,0 -1.995,0.532 -2.641,1.007 l -0.817,-2.052 c 0.912,-0.703 2.375,-1.272 4.027,-1.272 2.812,0 4.331,1.633 4.331,3.855 0,2.09 -1.481,3.742 -3.286,5.339 l -1.14,0.95 v 0.037 h 4.673 v 2.375 h -8.757 z"
   id="path5" />
			
		</g>
	</g>
	<g
   id="g10">
		<radialGradient
   id="SVGID_3_"
   cx="148.1533"
   cy="91.397"
   r="14.3191"
   gradientUnits="userSpaceOnUse">
			<stop
   offset="0"
   style="stop-color:#FFFFFF"
   id="stop7" />
			<stop
   offset="1"
   style="stop-color:#6F9FCF"
   id="stop8" />
		</radialGradient>
		<circle
   fill="url(#SVGID_3_)"
   stroke="#000000"
   stroke-miterlimit="10"
   cx="148.153"
   cy="91.397"
   r="14.319"
   id="circle8" />
		<g
   id="g9"
   transform="translate(5.1489999,-0.285)">
			<path
   d="m 138.872,94.741 c 0.514,0.285 1.691,0.76 2.869,0.76 1.5,0 2.261,-0.722 2.261,-1.634 0,-1.235 -1.216,-1.786 -2.489,-1.786 h -1.178 V 90.01 h 1.14 c 0.969,0 2.185,-0.38 2.185,-1.425 0,-0.741 -0.589,-1.292 -1.823,-1.292 -1.007,0 -2.07,0.437 -2.564,0.741 l -0.589,-2.09 c 0.74,-0.475 2.203,-0.931 3.818,-0.931 2.621,0 4.084,1.387 4.084,3.078 0,1.311 -0.74,2.355 -2.261,2.869 v 0.038 c 1.482,0.266 2.679,1.387 2.679,3.021 0,2.166 -1.919,3.761 -5.053,3.761 -1.596,0 -2.945,-0.418 -3.667,-0.854 z"
   id="path8" />
			
		</g>
	</g>
	<g
   id="g13">
		<radialGradient
   id="SVGID_4_"
   cx="14.8193"
   cy="91.397"
   r="14.3191"
   gradientUnits="userSpaceOnUse">
			<stop
   offset="0"
   style="stop-color:#FFFFFF"
   id="stop10" />
			<stop
   offset="1"
   style="stop-color:#6F9FCF"
   id="stop11" />
		</radialGradient>
		<circle
   fill="url(#SVGID_4_)"
   stroke="#000000"
   stroke-miterlimit="10"
   cx="14.819"
   cy="91.397"
   r="14.319"
   id="circle11" />
		<g
   id="g12">
			<path
   d="m 13.504,87.788003 h -0.038 l -2.356,1.121 -0.475,-2.166 3.286,-1.52 h 2.375 v 12.348 h -2.792 z"
   id="path11" />
			
		</g>
	</g>
	<g
   id="g16">
		<radialGradient
   id="SVGID_5_"
   cx="291.2686"
   cy="91.3975"
   r="14.3193"
   gradientUnits="userSpaceOnUse">
			<stop
   offset="0"
   style="stop-color:#FFFFFF"
   id="stop13" />
			<stop
   offset="1"
   style="stop-color:#6F9FCF"
   id="stop14" />
		</radialGradient>
		<circle
   fill="url(#SVGID_5_)"
   stroke="#000000"
   stroke-miterlimit="10"
   cx="291.269"
   cy="91.398"
   r="14.319"
   id="circle14" />
		<g
   id="g15">
			<path
   d="m 295.286,87.493003 h -4.787 l -0.268,1.9 c 0.268,-0.039 0.494,-0.039 0.799,-0.039 1.178,0 2.393,0.268 3.248,0.895 0.932,0.627 1.5,1.652 1.5,3.096 0,2.299 -1.975,4.333 -5.299,4.333 -1.502,0 -2.756,-0.342 -3.439,-0.703 l 0.533,-2.166 c 0.531,0.266 1.652,0.607 2.773,0.607 1.195,0 2.469,-0.57 2.469,-1.881 0,-1.271 -1.006,-2.051 -3.477,-2.051 -0.684,0 -1.158,0.037 -1.652,0.113 l 0.797,-6.479 h 6.803 v 2.375 z"
   id="path14" />
			
		</g>
	</g>
	<g
   id="g19">
		<g
   id="g18">
			<line
   fill="none"
   stroke="#339933"
   stroke-width="2"
   stroke-miterlimit="10"
   x1="29.139"
   y1="91.397"
   x2="123.243"
   y2="91.397"
   id="line16" />
			<g
   id="g17">
				<polygon
   fill="#339933"
   points="133.834,91.397 118.91,97.495 122.451,91.397 118.91,85.3     "
   id="polygon16" />
			</g>
		</g>
	</g>
	<g
   id="g22">
		<g
   id="g21">
			
				<line
   fill="none"
   stroke="#339933"
   stroke-width="2"
   stroke-miterlimit="10"
   x1="26.651"
   y1="99.462"
   x2="127.387"
   y2="161.623"
   id="line19" />
			<g
   id="g20">
				<polygon
   fill="#339933"
   points="136.4,167.185 120.498,164.537 126.713,161.207 126.901,154.159     "
   id="polygon19" />
			</g>
		</g>
	</g>
	<g
   id="g25">
		<g
   id="g24">
			
				<line
   fill="none"
   stroke="#990000"
   stroke-width="2"
   stroke-miterlimit="10"
   x1="162.473"
   y1="167.185"
   x2="269.363"
   y2="103.22"
   id="line22" />
			<g
   id="g23">
				<polygon
   fill="#990000"
   points="278.451,97.781 268.776,110.678 268.684,103.626 262.515,100.213     "
   id="polygon22" />
			</g>
		</g>
	</g>
	<g
   id="g28">
		<g
   id="g27">
			<line
   fill="none"
   stroke="#990000"
   stroke-width="2"
   stroke-miterlimit="10"
   x1="232.487"
   y1="23.62"
   x2="274.562"
   y2="72.936"
   id="line25" />
			<g
   id="g26">
				<polygon
   fill="#990000"
   points="281.436,80.993 267.11,73.598 274.048,72.334 276.388,65.683     "
   id="polygon25" />
			</g>
		</g>
	</g>
	<g
   id="g31">
		<g
   id="g30">
			<line
   fill="none"
   stroke="#333399"
   stroke-width="2"
   stroke-miterlimit="10"
   x1="156.648"
   y1="79.872"
   x2="203.714"
   y2="32.56"
   id="line28" />
			<g
   id="g29">
				<polygon
   fill="#333399"
   points="211.184,25.051 204.981,39.932 203.156,33.121 196.336,31.332     "
   id="polygon28" />
			</g>
		</g>
	</g>
	<g
   id="g34">
		<g
   id="g33">
			
				<line
   fill="none"
   stroke="#333399"
   stroke-width="2"
   stroke-miterlimit="10"
   x1="162.473"
   y1="91.397"
   x2="266.358"
   y2="91.398"
   id="line31" />
			<g
   id="g32">
				<polygon
   fill="#333399"
   points="276.949,91.398 262.025,97.496 265.566,91.398 262.025,85.301     "
   id="polygon31" />
			</g>
		</g>
	</g>
	
	
	
	
	
	
	<g
   id="g46">
		<g
   id="g45">
			
			
			<path
   fill="#666666"
   d="M152.891,45.883h-1.406v-8.961c-0.339,0.323-0.783,0.646-1.332,0.969c-0.55,0.323-1.043,0.565-1.48,0.727     v-1.359c0.786-0.37,1.474-0.817,2.063-1.344c0.588-0.526,1.005-1.036,1.25-1.531h0.906V45.883z"
   id="path43" />
			
			
		</g>
	</g>
	<g
   id="g51">
		<g
   id="g50">
			
			
			<path
   fill="#666666"
   d="M63.852,81.99l1.406-0.188c0.161,0.797,0.436,1.371,0.824,1.723c0.388,0.352,0.86,0.527,1.418,0.527     c0.661,0,1.22-0.229,1.676-0.688c0.456-0.458,0.684-1.026,0.684-1.703c0-0.646-0.211-1.178-0.633-1.598     c-0.422-0.419-0.958-0.629-1.609-0.629c-0.266,0-0.597,0.052-0.992,0.156l0.156-1.234c0.094,0.011,0.169,0.016,0.227,0.016     c0.599,0,1.138-0.156,1.617-0.469c0.479-0.313,0.719-0.794,0.719-1.445c0-0.516-0.175-0.942-0.523-1.281     c-0.349-0.338-0.8-0.508-1.352-0.508c-0.547,0-1.003,0.172-1.367,0.516c-0.365,0.344-0.599,0.859-0.703,1.547l-1.406-0.25     c0.172-0.942,0.563-1.673,1.172-2.191c0.609-0.518,1.367-0.777,2.273-0.777c0.625,0,1.2,0.134,1.727,0.402     c0.526,0.269,0.928,0.634,1.207,1.098c0.278,0.464,0.418,0.956,0.418,1.477c0,0.495-0.133,0.945-0.398,1.352     s-0.659,0.729-1.18,0.969c0.677,0.156,1.203,0.48,1.578,0.973s0.563,1.108,0.563,1.848c0,1-0.364,1.848-1.094,2.543     s-1.651,1.043-2.766,1.043c-1.005,0-1.84-0.299-2.504-0.898C64.324,83.719,63.945,82.943,63.852,81.99z"
   id="path48" />
			
			
		</g>
	</g>
	<g
   id="g56">
		<g
   id="g55">
			
			
			<path
   fill="#666666"
   d="M55.602,153.633v-2.742h-4.969v-1.289l5.227-7.422h1.148v7.422h1.547v1.289h-1.547v2.742H55.602z      M55.602,149.602v-5.164l-3.586,5.164H55.602z"
   id="path53" />
			
			
		</g>
	</g>
	<g
   id="g61">
		<g
   id="g60">
			
			
			<path
   fill="#666666"
   d="M237.602,145.24l1.406-0.188c0.161,0.797,0.436,1.371,0.824,1.723c0.388,0.352,0.86,0.527,1.418,0.527     c0.661,0,1.22-0.229,1.676-0.688c0.455-0.459,0.684-1.026,0.684-1.703c0-0.646-0.211-1.179-0.633-1.598     c-0.422-0.42-0.959-0.629-1.609-0.629c-0.266,0-0.597,0.052-0.992,0.156l0.156-1.234c0.094,0.01,0.169,0.016,0.227,0.016     c0.599,0,1.138-0.156,1.617-0.469c0.479-0.313,0.719-0.795,0.719-1.445c0-0.516-0.175-0.943-0.523-1.281     c-0.35-0.339-0.8-0.508-1.352-0.508c-0.547,0-1.003,0.172-1.367,0.516c-0.365,0.344-0.6,0.859-0.703,1.547l-1.406-0.25     c0.172-0.943,0.563-1.674,1.172-2.191c0.609-0.519,1.367-0.777,2.273-0.777c0.625,0,1.2,0.134,1.727,0.402     c0.525,0.268,0.928,0.634,1.207,1.098c0.278,0.463,0.418,0.955,0.418,1.477c0,0.494-0.133,0.945-0.398,1.352     s-0.659,0.729-1.18,0.969c0.677,0.156,1.203,0.48,1.578,0.973s0.563,1.107,0.563,1.848c0,1-0.364,1.848-1.094,2.543     s-1.651,1.043-2.766,1.043c-1.006,0-1.84-0.3-2.504-0.898C238.074,146.969,237.695,146.193,237.602,145.24z"
   id="path58" />
			
			
		</g>
	</g>
	<g
   id="g66">
		<g
   id="g65">
			
			
			<path
   fill="#666666"
   d="M273.852,38.74l1.406-0.188c0.161,0.797,0.436,1.371,0.824,1.723c0.388,0.352,0.86,0.527,1.418,0.527     c0.661,0,1.22-0.229,1.676-0.688c0.455-0.458,0.684-1.026,0.684-1.703c0-0.646-0.211-1.178-0.633-1.598     c-0.422-0.419-0.959-0.629-1.609-0.629c-0.266,0-0.597,0.052-0.992,0.156l0.156-1.234c0.094,0.011,0.169,0.016,0.227,0.016     c0.599,0,1.138-0.156,1.617-0.469c0.479-0.313,0.719-0.794,0.719-1.445c0-0.516-0.175-0.942-0.523-1.281     c-0.35-0.338-0.8-0.508-1.352-0.508c-0.547,0-1.003,0.172-1.367,0.516c-0.365,0.344-0.6,0.859-0.703,1.547l-1.406-0.25     c0.172-0.942,0.563-1.673,1.172-2.191c0.609-0.518,1.367-0.777,2.273-0.777c0.625,0,1.2,0.134,1.727,0.402     c0.525,0.269,0.928,0.634,1.207,1.098c0.278,0.464,0.418,0.956,0.418,1.477c0,0.495-0.133,0.945-0.398,1.352     s-0.659,0.729-1.18,0.969c0.677,0.156,1.203,0.48,1.578,0.973s0.563,1.108,0.563,1.848c0,1-0.364,1.848-1.094,2.543     s-1.651,1.043-2.766,1.043c-1.006,0-1.84-0.299-2.504-0.898C274.324,40.469,273.945,39.693,273.852,38.74z"
   id="path63" />
			
			
		</g>
	</g>
	<g
   id="g71">
		<g
   id="g70">
			
			
			<path
   fill="#666666"
   d="M204.852,80.989l1.406-0.188c0.161,0.797,0.436,1.371,0.824,1.723c0.388,0.352,0.86,0.527,1.418,0.527     c0.661,0,1.22-0.229,1.676-0.688c0.455-0.458,0.684-1.026,0.684-1.703c0-0.646-0.211-1.178-0.633-1.598     c-0.422-0.419-0.959-0.629-1.609-0.629c-0.266,0-0.597,0.052-0.992,0.156l0.156-1.234c0.094,0.011,0.169,0.016,0.227,0.016     c0.599,0,1.138-0.156,1.617-0.469c0.479-0.313,0.719-0.794,0.719-1.445c0-0.516-0.175-0.942-0.523-1.281     c-0.35-0.338-0.8-0.508-1.352-0.508c-0.547,0-1.003,0.172-1.367,0.516c-0.365,0.344-0.6,0.859-0.703,1.547l-1.406-0.25     c0.172-0.942,0.563-1.673,1.172-2.191c0.609-0.518,1.367-0.777,2.273-0.777c0.625,0,1.2,0.134,1.727,0.402     c0.525,0.269,0.928,0.634,1.207,1.098c0.278,0.464,0.418,0.956,0.418,1.477c0,0.495-0.133,0.945-0.398,1.352     s-0.659,0.729-1.18,0.969c0.677,0.156,1.203,0.48,1.578,0.973s0.563,1.108,0.563,1.848c0,1-0.364,1.848-1.094,2.543     s-1.651,1.043-2.766,1.043c-1.006,0-1.84-0.299-2.504-0.898C205.324,82.719,204.945,81.942,204.852,80.989z"
   id="path68" />
			
			
		</g>
	</g>
</g>
</svg>
